# xmcd
#
# Track frame offsets:
#	150
#	24600
#	45516
#	49893
#	67867
#	93387
#	105004
#	123803
#	142596
#	165323
#	181142
#	198639
#
# Disc length: 2968 seconds
#
# Revision: 0
# Processed by: cddbd v1.5.2PL0 Copyright (c) Steve Scherf et al.
# Submitted via: EasyCDDAExtractor 9.0.0.1
#
DISCID=890b960c
DTITLE=Big Man - Ain't Easy Bein' a Man
DYEAR=2011
DGENRE=Blues
TTITLE0=Ain't easy bein' a man
TTITLE1=Love at first bite
TTITLE2=Huge incandescent orange ball
TTITLE3=Senior citizen
TTITLE4=Monkey on my back
TTITLE5=Aleluia it's a holiday
TTITLE6=Alcohol free
TTITLE7=Life's no holiday
TTITLE8=Boo hoo hoo
TTITLE9=I don't wanna grow up
TTITLE10=A million miles away
TTITLE11=Batterin' ram
EXTD=
EXTT0=
EXTT1=
EXTT2=
EXTT3=
EXTT4=
EXTT5=
EXTT6=
EXTT7=
EXTT8=
EXTT9=
EXTT10=
EXTT11=
PLAYORDER=
